<svg width="642" height="373" viewBox="0 0 642 373" fill="none" xmlns="http://www.w3.org/2000/svg">
<g clip-path="url(#clip0)">
<path d="M536.63 55.1933C536.63 173.908 440.307 270.18 321.445 270.18C202.582 270.18 106.259 173.908 106.259 55.1933C106.259 26.9233 83.3679 4.00598 55.1302 4.00598C26.8925 4.00598 4.00139 26.9233 4.00139 55.1933C4.00139 230.486 146.145 372.555 321.445 372.555C496.744 372.555 638.888 230.486 638.888 55.1933C638.888 26.9233 615.997 4.00598 587.759 4.00598C559.521 4.00598 536.63 26.9233 536.63 55.1933Z" fill="#F9FCFF"/>
<path fill-rule="evenodd" clip-rule="evenodd" d="M588.204 105.936C560.011 105.936 537.075 82.9733 537.075 54.7483C537.075 26.5232 560.011 3.56091 588.204 3.56091C616.396 3.56091 639.332 26.5232 639.332 54.7483C639.332 82.9733 616.396 105.936 588.204 105.936Z" fill="white"/>
<path fill-rule="evenodd" clip-rule="evenodd" d="M587.314 0C557.161 0 532.629 24.5599 532.629 54.7482C532.629 84.9365 557.161 109.496 587.314 109.496C617.469 109.496 642 84.9365 642 54.7482C642 24.5599 617.469 0 587.314 0ZM587.314 6.43604C613.967 6.43604 635.571 28.0665 635.571 54.7482C635.571 81.431 613.967 103.06 587.314 103.06C560.663 103.06 539.057 81.431 539.057 54.7482C539.057 28.0665 560.663 6.43604 587.314 6.43604Z" fill="#06F3F9"/>
<path fill-rule="evenodd" clip-rule="evenodd" d="M587.758 91.6921C576.376 91.6921 566.354 84.6404 562.225 73.7255C561.485 71.7705 562.425 69.5676 564.324 68.8071C566.225 68.0445 568.364 69.0127 569.104 70.9688C572.121 78.942 579.444 84.0932 587.758 84.0932C596.074 84.0932 603.397 78.942 606.414 70.9688C607.154 69.0127 609.292 68.0445 611.193 68.8071C613.093 69.5686 614.033 71.7705 613.293 73.7255C609.164 84.6404 599.142 91.6921 587.758 91.6921ZM601.542 46.2187C598.805 46.2187 596.579 48.447 596.579 51.1868C596.579 53.9267 598.805 56.156 601.542 56.156C604.278 56.156 606.504 53.9267 606.504 51.1868C606.504 48.447 604.278 46.2187 601.542 46.2187ZM601.542 63.2053C594.923 63.2053 589.537 57.8135 589.537 51.1868C589.537 44.5602 594.923 39.1695 601.542 39.1695C608.16 39.1695 613.546 44.5602 613.546 51.1868C613.546 57.8135 608.16 63.2053 601.542 63.2053ZM573.908 40.6613V46.4114C573.908 46.6805 574.119 46.8992 574.381 46.8992H578.668V51.6393C578.668 54.3455 576.518 56.6175 573.891 56.5714C571.339 56.5274 569.277 54.3755 569.277 51.7358V34.7107C569.277 32.0163 571.416 29.7454 574.032 29.7797C576.428 29.8097 578.396 31.7 578.641 34.1092C578.666 34.359 578.865 34.553 579.108 34.553H585.484C585.754 34.553 585.971 34.3204 585.958 34.0427C585.664 27.4445 580.326 22.1801 573.833 22.2562C567.235 22.3334 561.972 27.9752 561.972 34.7718V51.5782C561.972 58.3834 567.248 64.0295 573.854 64.0949C580.525 64.1614 585.972 58.5914 585.972 51.7358V46.8992H585.981V40.4168C585.981 40.2828 585.874 40.1734 585.743 40.1734H574.381C574.119 40.1734 573.908 40.3921 573.908 40.6613Z" fill="#06F3F9"/>
<path fill-rule="evenodd" clip-rule="evenodd" d="M54.6861 105.936C26.4937 105.936 3.55679 82.9733 3.55679 54.7483C3.55679 26.5232 26.4937 3.56091 54.6861 3.56091C82.8786 3.56091 105.814 26.5232 105.814 54.7483C105.814 82.9733 82.8786 105.936 54.6861 105.936Z" fill="white"/>
<path fill-rule="evenodd" clip-rule="evenodd" d="M54.956 0.184326C25.0722 0.184326 0.758881 24.6946 0.758881 54.8219C0.758881 84.9491 25.0722 109.459 54.956 109.459C84.8398 109.459 109.152 84.9491 109.152 54.8219C109.152 24.6946 84.8398 0.184326 54.956 0.184326ZM54.956 6.60736C81.3686 6.60736 102.781 28.1941 102.781 54.8219C102.781 81.4507 81.3686 103.036 54.956 103.036C28.5423 103.036 7.13002 81.4507 7.13002 54.8219C7.13002 28.1941 28.5423 6.60736 54.956 6.60736Z" fill="#06F3F9"/>
<path fill-rule="evenodd" clip-rule="evenodd" d="M55.1297 91.6921C43.7477 91.6921 33.725 84.6404 29.5962 73.7255C28.8563 71.7705 29.796 69.5676 31.6965 68.8071C33.595 68.0445 35.7354 69.0127 36.4753 70.9688C39.4921 78.942 46.8151 84.0932 55.1297 84.0932C63.4453 84.0932 70.7683 78.942 73.785 70.9688C74.5239 69.0127 76.6644 68.0445 78.5639 68.8071C80.4644 69.5686 81.4041 71.7705 80.6642 73.7255C76.5344 84.6404 66.5117 91.6921 55.1297 91.6921ZM69.8025 46.2187C67.0658 46.2187 64.839 48.447 64.839 51.1868C64.839 53.9267 67.0658 56.156 69.8025 56.156C72.5392 56.156 74.766 53.9267 74.766 51.1868C74.766 48.447 72.5392 46.2187 69.8025 46.2187ZM69.8025 63.2053C63.1834 63.2053 57.7978 57.8135 57.7978 51.1868C57.7978 44.5602 63.1834 39.1695 69.8025 39.1695C76.4215 39.1695 81.8061 44.5602 81.8061 51.1868C81.8061 57.8135 76.4215 63.2053 69.8025 63.2053ZM41.2789 40.6613V46.4114C41.2789 46.6805 41.4913 46.8992 41.7526 46.8992H46.0392V51.6393C46.0392 54.3455 43.8896 56.6175 41.2623 56.5714C38.7109 56.5274 36.6478 54.3755 36.6478 51.7358V34.7107C36.6478 32.0163 38.788 29.7454 41.4028 29.7797C43.7991 29.8097 45.7675 31.7 46.0121 34.1092C46.0381 34.359 46.2359 34.553 46.4795 34.553H52.8553C53.1249 34.553 53.3414 34.3204 53.3299 34.0427C53.0354 27.4445 47.6974 22.1801 41.204 22.2562C34.6065 22.3334 29.3435 27.9752 29.3435 34.7718V51.5782C29.3435 58.3834 34.619 64.0295 41.2248 64.0949C47.8962 64.1614 53.3435 58.5914 53.3435 51.7358V46.8992H53.3518V40.4168C53.3518 40.2828 53.2456 40.1734 53.1155 40.1734H41.7526C41.4913 40.1734 41.2789 40.3921 41.2789 40.6613Z" fill="#06F3F9"/>
</g>
<defs>
<clipPath id="clip0">
<rect width="642" height="373" fill="white"/>
</clipPath>
</defs>
</svg>
