<svg width="25" height="24" viewBox="0 0 25 24" fill="none" xmlns="http://www.w3.org/2000/svg">
<mask id="path-1-inside-1" fill="white">
<path fill-rule="evenodd" clip-rule="evenodd" d="M12.6706 23.5C19.0219 23.5 24.1706 18.3513 24.1706 12C24.1706 5.64873 19.0219 0.5 12.6706 0.5C6.31932 0.5 1.17059 5.64873 1.17059 12C1.17059 13.884 1.62364 15.6622 2.42673 17.2316L0.803046 22.1026C0.54246 22.8844 1.2862 23.6281 2.06796 23.3675L6.69251 21.826C8.43451 22.8881 10.4811 23.5 12.6706 23.5Z"/>
</mask>
<path d="M2.42673 17.2316L4.3241 17.864L4.58954 17.0677L4.20716 16.3205L2.42673 17.2316ZM0.803046 22.1026L2.70041 22.7351H2.70041L0.803046 22.1026ZM2.06796 23.3675L2.70041 25.2649L2.06796 23.3675ZM6.69251 21.826L7.73365 20.1184L6.94089 19.635L6.06005 19.9287L6.69251 21.826ZM22.1706 12C22.1706 17.2467 17.9173 21.5 12.6706 21.5V25.5C20.1264 25.5 26.1706 19.4558 26.1706 12H22.1706ZM12.6706 2.5C17.9173 2.5 22.1706 6.75329 22.1706 12H26.1706C26.1706 4.54416 20.1264 -1.5 12.6706 -1.5V2.5ZM3.17059 12C3.17059 6.75329 7.42389 2.5 12.6706 2.5V-1.5C5.21475 -1.5 -0.829409 4.54416 -0.829409 12H3.17059ZM4.20716 16.3205C3.54503 15.0266 3.17059 13.5599 3.17059 12H-0.829409C-0.829409 14.2081 -0.29775 16.2978 0.646307 18.1427L4.20716 16.3205ZM2.70041 22.7351L4.3241 17.864L0.529365 16.5991L-1.09432 21.4702L2.70041 22.7351ZM1.4355 21.4702C2.21725 21.2096 2.961 21.9533 2.70041 22.7351L-1.09432 21.4702C-1.87608 23.8155 0.355145 26.0467 2.70041 25.2649L1.4355 21.4702ZM6.06005 19.9287L1.4355 21.4702L2.70041 25.2649L7.32496 23.7234L6.06005 19.9287ZM12.6706 21.5C10.8587 21.5 9.17095 20.9947 7.73365 20.1184L5.65137 23.5337C7.69807 24.7815 10.1035 25.5 12.6706 25.5V21.5Z" fill="#151719" mask="url(#path-1-inside-1)"/>
</svg>
