<svg width="25" height="24" viewBox="0 0 25 24" fill="none" xmlns="http://www.w3.org/2000/svg">
<path fill-rule="evenodd" clip-rule="evenodd" d="M13.0093 1.34921C12.8193 1.12756 12.5419 1 12.25 1C11.9581 1 11.6807 1.12756 11.4908 1.34921L8.49076 4.84921C8.13134 5.26853 8.1799 5.89983 8.59923 6.25926C9.01855 6.61868 9.64985 6.57012 10.0093 6.15079L11.25 4.70326V13C11.25 13.5523 11.6977 14 12.25 14C12.8023 14 13.25 13.5523 13.25 13V4.70326L14.4908 6.15079C14.8502 6.57012 15.4815 6.61868 15.9008 6.25926C16.3201 5.89983 16.3687 5.26853 16.0093 4.84921L13.0093 1.34921ZM7.25 9C5.59315 9 4.25 10.3431 4.25 12V20C4.25 21.6569 5.59315 23 7.25 23H17.75C19.4069 23 20.75 21.6569 20.75 20V12C20.75 10.3431 19.4069 9 17.75 9H15.75C15.1977 9 14.75 9.44771 14.75 10C14.75 10.5523 15.1977 11 15.75 11H17.75C18.3023 11 18.75 11.4477 18.75 12V20C18.75 20.5523 18.3023 21 17.75 21H7.25C6.69772 21 6.25 20.5523 6.25 20V12C6.25 11.4477 6.69772 11 7.25 11H8.75C9.30228 11 9.75 10.5523 9.75 10C9.75 9.44771 9.30228 9 8.75 9H7.25Z" fill="#151719"/>
</svg>
